<?xml version="1.0" encoding="UTF-8"?><svg id="Layer_2" xmlns="http://www.w3.org/2000/svg" viewBox="0 0 492 492"><defs><style>.cls-1{fill:#fba0a2;}.cls-2{fill:#ff7d84;}.cls-3{fill:#c1a88a;}.cls-4{fill:#ac5420;}.cls-5{fill:#3544b1;}</style></defs><path class="cls-5" d="M211.04,2.59c-1.5,10.52-36.15,243.04-36.15,243.04l250.51,40.78,43.3-248.97L211.04,2.61v-.02Z"/><path class="cls-1" d="M308.09,276.32c-3.19-9.16-72.59-211.96-72.59-211.96L15.55,136.34l69.29,219.76,223.25-79.79Z"/><path class="cls-5" d="M266.11,274.14c-6.56,.35-151.66,7.17-151.66,7.17l5.26,156.76,156.11-3.56-9.71-160.37h0Z"/><path class="cls-1" d="M426.92,413.35c-3-5.47-68.66-126.88-68.66-126.88l-132.02,69.12,67.4,132.18,133.28-74.43h0Z"/><g><polygon class="cls-2" points="478.91 86.52 367.93 208.23 344.81 192.14 444.16 57.94 478.91 86.52"/><polygon class="cls-3" points="367.93 208.23 339.78 225.47 344.81 192.14 367.93 208.23"/><rect class="cls-4" x="338.95" y="223.29" width="3.82" height="2.81" transform="translate(-32.73 389.32) rotate(-57.17)"/></g></svg>